<?xml version="1.0" encoding="UTF-8" standalone="no"?>
<svg
   xmlns:dc="http://purl.org/dc/elements/1.1/"
   xmlns:cc="http://creativecommons.org/ns#"
   xmlns:rdf="http://www.w3.org/1999/02/22-rdf-syntax-ns#"
   xmlns:svg="http://www.w3.org/2000/svg"
   xmlns="http://www.w3.org/2000/svg"
   xmlns:sodipodi="http://sodipodi.sourceforge.net/DTD/sodipodi-0.dtd"
   xmlns:inkscape="http://www.inkscape.org/namespaces/inkscape"
   width="1024"
   height="1024"
   viewBox="0 0 1024 1024"
   fill="none"
   version="1.1"
   id="svg4"
   sodipodi:docname="github-dark.svg"
   inkscape:version="0.92.4 (5da689c313, 2019-01-14)">
  <metadata
     id="metadata10">
    <rdf:RDF>
      <cc:Work
         rdf:about="">
        <dc:format>image/svg+xml</dc:format>
        <dc:type
           rdf:resource="http://purl.org/dc/dcmitype/StillImage" />
        <dc:title></dc:title>
      </cc:Work>
    </rdf:RDF>
  </metadata>
  <defs
     id="defs8" />
  <sodipodi:namedview
     pagecolor="#ffffff"
     bordercolor="#666666"
     borderopacity="1"
     objecttolerance="10"
     gridtolerance="10"
     guidetolerance="10"
     inkscape:pageopacity="0"
     inkscape:pageshadow="2"
     inkscape:window-width="1028"
     inkscape:window-height="744"
     id="namedview6"
     showgrid="false"
     inkscape:zoom="0.23046875"
     inkscape:cx="512"
     inkscape:cy="512"
     inkscape:window-x="772"
     inkscape:window-y="32"
     inkscape:window-maximized="0"
     inkscape:current-layer="svg4" />
  <path
     d="m 512,43.389831 c -261.3044,0 -472.949153,215.184349 -472.949153,480.858869 0,212.78005 135.381693,392.50106 323.378983,456.21486 23.64746,4.20751 32.51526,-10.21825 32.51526,-22.8408 0,-11.4204 -0.59119,-49.28803 -0.59119,-89.55996 -118.82847,22.23972 -149.57017,-29.45261 -159.02915,-56.50092 -5.32068,-13.82469 -28.37695,-56.50092 -48.47729,-67.92132 -16.55322,-9.0161 -40.20068,-31.25582 -0.59119,-31.8569 37.24475,-0.60107 63.84814,34.86227 72.71594,49.28804 42.56542,72.7299 110.55186,52.2934 137.74644,39.67085 4.1383,-31.25582 16.55322,-52.2934 30.15051,-64.31487 -105.23119,-12.02147 -215.19187,-53.49555 -215.19187,-237.42407 0,-52.2934 18.32678,-95.5707 48.47729,-129.23082 -4.72949,-12.02147 -21.28271,-61.30951 4.72949,-127.4276 0,0 39.60949,-12.62255 130.06102,49.28803 37.83593,-10.81932 78.03661,-16.22898 118.23729,-16.22898 40.20067,0 80.40135,5.40966 118.23728,16.22898 90.45153,-62.51165 130.06102,-49.28803 130.06102,-49.28803 26.0122,66.11809 9.45898,115.40613 4.72949,127.4276 30.15051,33.66012 48.47729,76.33635 48.47729,129.23082 0,184.52959 -110.55186,225.4026 -215.78305,237.42407 17.14441,15.02684 31.92407,43.87837 31.92407,88.95889 0,64.31487 -0.59119,116.0072 -0.59119,132.23619 0,12.62255 8.8678,27.64939 32.51525,22.8408 C 849.56746,916.74976 984.94916,736.42768 984.94916,524.2487 984.94916,258.57418 773.30441,43.389831 512,43.389831 Z"
     id="path2"
     inkscape:connector-curvature="0"
     style="clip-rule:evenodd;fill:#1b1f23;fill-rule:evenodd;stroke-width:59.61095047" />
  <path
     style="fill:#241c1c;stroke-width:4.33898306"
     d="M 316.55502,958.86687 C 182.57015,894.82952 92.795943,784.70153 54.124351,636.93746 45.349875,603.41022 44.051011,588.38103 44.226879,522.41356 44.408067,454.45111 45.626851,442.02861 55.838901,404.0576 77.674913,322.86574 118.4269,250.57578 175.83583,191.195 245.03131,119.62283 324.03528,75.149968 416.90873,55.490395 646.91144,6.8031176 881.40648,143.02161 957.00376,369.23235 c 57.06784,170.76494 16.46405,356.68915 -106.32262,486.84948 -40.27773,42.69651 -78.0337,70.34039 -134.20084,98.25818 -47.30177,23.5113 -71.9527,29.20058 -79.04455,18.24304 -1.93068,-2.98305 -4.4866,-47.40339 -5.67982,-98.71186 -2.12775,-91.49401 -2.39533,-93.68854 -13.91286,-114.10697 -7.89452,-13.99552 -10.02765,-21.28991 -6.50847,-22.25625 2.87917,-0.79061 20.40758,-4.77787 38.95191,-8.86059 110.07263,-24.23344 165.01938,-98.80251 164.75388,-223.58975 -0.10891,-51.20982 -8.2865,-81.37861 -31.3022,-115.48147 -12.90948,-19.12821 -13.11055,-20.22118 -8.74605,-47.54185 4.5394,-28.41561 1.1441,-65.31024 -8.25691,-89.72245 -3.81744,-9.91301 -7.20141,-11.9322 -19.99724,-11.9322 -20.85576,0 -59.8023,14.20172 -89.91059,32.78559 l -24.82688,15.32398 -35.31346,-6.69885 c -45.95999,-8.71846 -124.57086,-8.5938 -168.54741,0.26728 -34.03031,6.85696 -34.77835,6.81933 -47.72669,-2.4007 -23.07503,-16.43085 -70.54045,-35.64775 -94.04,-38.07312 l -22.75458,-2.34848 -6.84647,23.05459 c -6.95526,23.42089 -8.52721,75.50702 -2.8744,95.24225 2.38879,8.33981 -0.2088,15.70995 -11.23649,31.88131 -41.33284,60.6118 -42.60292,173.35181 -2.77725,246.52468 15.00014,27.56018 49.93902,59.64974 80.91497,74.31615 26.4704,12.53315 69.4693,24.76939 87.04113,24.76939 6.21824,0 11.29772,0.48813 11.28773,1.08474 -0.01,0.59661 -4.89134,10.69026 -10.84745,22.43029 -5.95612,11.74003 -10.8293,24.68061 -10.8293,28.75683 0,10.84103 -9.08785,16.67497 -33.00478,21.18743 -35.52547,6.70268 -60.19458,-1.11417 -83.7592,-26.5407 -57.52068,-62.06559 -63.93856,-67.59146 -82.05767,-70.65265 -33.96534,-5.7384 -46.11634,7.03205 -23.92734,25.14714 23.83993,19.46289 39.62471,38.70906 51.46505,62.75067 17.74229,36.02545 30.60698,51.82308 51.12852,62.78509 15.7383,8.40691 24.76635,9.71702 66.9984,9.72262 l 48.80908,0.004 0.004,44.75982 c 0.002,24.61791 -2.01676,48.53656 -4.48717,53.15254 -7.12814,13.31907 -28.32583,10.15782 -72.06519,-10.74718 z"
     id="path3710"
     inkscape:connector-curvature="0" />
  <path
     style="fill:#b3b3b3;stroke-width:4.33898306"
     d="M 308.38748,954.34001 C 252.02481,926.32502 214.8806,899.07968 173.13354,855.13086 117.21277,796.26084 77.262332,724.73357 55.828862,645.1085 45.48955,606.69809 44.409237,595.2962 44.409237,524.58305 c 0,-70.71316 1.080313,-82.11504 11.419625,-120.52545 C 77.692208,322.83557 118.43576,250.56661 175.83583,191.195 230.05292,135.11569 283.75752,99.31487 349.84578,75.195642 519.31613,13.346624 700.45067,50.656261 832.39611,174.59015 c 192.35489,180.67539 200.60659,488.22119 18.28503,681.49168 -40.27773,42.69651 -78.0337,70.34039 -134.20084,98.25818 -47.30177,23.5113 -71.9527,29.20058 -79.04455,18.24304 -1.93068,-2.98305 -4.4866,-47.40339 -5.67982,-98.71186 -2.12775,-91.49401 -2.39533,-93.68854 -13.91286,-114.10697 -7.9718,-14.1325 -10.0621,-21.33595 -6.50847,-22.42903 2.87917,-0.88563 19.40341,-4.64557 36.72051,-8.35545 85.27681,-18.26898 140.38905,-70.54414 159.40547,-151.19959 3.52238,-14.93976 6.43323,-47.00281 6.46851,-71.25122 0.0746,-51.448 -8.55248,-84.8327 -29.96532,-115.95517 -13.79089,-20.04438 -13.92805,-20.7377 -9.60126,-48.52954 4.38619,-28.17329 0.92329,-67.08908 -8.07619,-90.75942 -3.29572,-8.66844 -7.14362,-10.90514 -18.76068,-10.90514 -20.53519,0 -59.67191,14.27952 -90.55544,33.04027 -25.98596,15.78565 -26.46047,15.88843 -48.50814,10.50796 -39.14856,-9.55374 -127.19139,-10.89066 -173.08012,-2.62821 l -40.7585,7.33874 -25.70494,-15.31211 c -30.44222,-18.13405 -71.37524,-32.94665 -91.04449,-32.94665 -11.94435,0 -14.86084,2.14125 -19.20723,14.1017 -7.11406,19.57652 -10.54764,80.38181 -5.57411,98.71186 3.63027,13.37942 2.57421,17.46119 -8.87524,34.30368 -21.85341,32.14704 -29.99177,59.14542 -32.16755,106.71327 -2.26794,49.58269 5.17736,93.13792 22.32266,130.5882 14.55042,31.78227 51.86566,68.33599 85.95796,84.20378 28.57502,13.29981 72.02754,26.02158 88.87942,26.02158 11.80121,0 12.07374,1.38144 3.00345,15.22449 -3.81283,5.8191 -9.37072,18.93003 -12.35088,29.13545 -6.6417,22.74421 -20.50747,30.68008 -54.36574,31.11541 -33.57762,0.43173 -53.2695,-11.14069 -84.82951,-49.85231 -30.94775,-37.96059 -58.04213,-54.3311 -82.36872,-49.7674 -8.33402,1.56347 -15.14341,5.19489 -15.13198,8.06977 0.0113,2.87493 11.23855,16.03385 24.94915,29.24206 15.46272,14.89616 30.65997,35.33598 40.02285,53.82951 19.64257,38.79797 27.5176,48.38439 49.31567,60.03282 15.55656,8.31315 24.72764,9.63606 66.83962,9.64166 l 48.80908,0.004 0.004,44.75982 c 0.002,24.61791 -2.01676,48.53656 -4.48717,53.15254 -7.64813,14.2907 -28.88656,10.24751 -80.23273,-15.27405 z"
     id="path11"
     inkscape:connector-curvature="0" />
</svg>
